<?xml version="1.0" encoding="UTF-8"?>
<svg id="Calque_1" xmlns="http://www.w3.org/2000/svg" viewBox="0 0 337.6 396.67">
  <defs>
    <style>
      .cls-1 {
        fill: #2b4999;
      }
    </style>
  </defs>
  <g>
    <path class="cls-1" d="M168.82,396.67l-1.82-1.15C128.07,370.79.98,282.24,0,180.69c.03-2.81.63-67.77,3.79-89.77l.32-2.2,2.14-.59c39.64-11.04,55.31-34.2,79.03-69.25,3.73-5.51,7.64-11.29,11.85-17.31l1.08-1.56,1.89.11c7.18.4,16.65.58,30.71.58,10.89,0,23.58-.11,38.14-.23,19.9-.17,42.45-.36,68.8-.36h1.77l1.01,1.45c4.19,6,8.08,11.75,11.8,17.25,23.74,35.09,39.42,58.27,79.09,69.32l2.14.59.31,2.2c3.15,22.01,3.73,87.97,3.75,90.77-1.99,104.42-139.43,196.45-166.96,213.84l-1.82,1.15ZM10.23,94.05c-2.84,23.53-3.42,85.99-3.43,86.64.93,96.56,121.86,182.17,162.03,207.93,30.73-19.66,160.09-108.22,161.97-206.97,0-.57-.56-64.01-3.39-87.59-40.51-11.98-57.44-37.01-80.72-71.43-3.4-5.02-6.94-10.26-10.73-15.71-25.55,0-47.53.2-66.96.36-14.57.12-27.29.23-38.19.23-12.99,0-22.12-.15-29.19-.5-3.78,5.45-7.32,10.68-10.71,15.69-23.27,34.38-40.2,59.39-80.67,71.36Z"/>
    <path class="cls-1" d="M168.82,380.09l-2.73-1.73c-35.43-22.49-151.1-103.1-152-196,.02-2.59.57-61.47,3.45-81.52l.47-3.29,3.21-.89c35.12-9.78,49.13-30.47,70.33-61.79,3.39-5,6.93-10.24,10.75-15.7l1.63-2.33,2.83.16c15.49.87,41.34,1.79,67.45,1.79,21.46,0,40.49-.6,56.55-1.78l2.9-.22,1.66,2.38c3.8,5.44,7.33,10.66,10.71,15.65,21.21,31.34,35.23,52.06,70.39,61.84l3.21.89.47,3.3c2.86,20.04,3.39,79.83,3.41,82.37-1.83,95.56-126.9,179.32-151.96,195.15l-2.73,1.73ZM27.24,105.53c-2.43,22.06-2.93,76.26-2.94,76.83.83,85.46,107.37,161.68,144.53,185.65,66.46-42.63,143.16-115.85,144.48-184.84,0-.45-.49-55.5-2.91-77.64-36.39-11.16-51.77-33.88-72.82-64.99-2.86-4.22-5.82-8.6-8.97-13.15-15.68,1.07-33.96,1.61-54.39,1.61-24.78,0-49.34-.83-65.17-1.65-3.18,4.59-6.17,9.01-9.04,13.25-21.04,31.08-36.41,53.78-72.77,64.94Z"/>
  </g>
  <g>
    <path class="cls-1" d="M162.74,259.8v13.99l-21.63,48.2h-18.27l20.61-45.97h-5.22v3.08h-15.94v-19.3h40.46ZM157.24,265.11h-29.46v8.67h5.59v-2.98h18.18l-20.51,45.78h6.43l19.77-44.1v-7.37Z"/>
    <path class="cls-1" d="M217.01,291.69v19.39l-10.91,10.91h-22.84l-10.82-10.91v-19.39l4.29-4.38-2.52-2.52v-15.85l9.04-9.14h22.84l9.04,9.14v15.85l-2.52,2.52,4.38,4.38ZM206.1,287.31l3.45-3.73v-12.31l-5.97-6.15h-17.53l-6.34,6.15v12.31l3.92,4.01-5.5,5.78v15.48l7.93,7.74h17.53l7.93-7.74v-16.13l-5.41-5.41ZM204.05,292.71v14.55l-3.73,3.82h-11.56l-3.36-3.54v-14.82l2.05-2.15h14.45l2.14,2.15ZM203.3,273.69v9.88l-1.68,1.96h-13.43l-2.14-1.96v-9.88l2.98-2.89h11.37l2.89,2.89ZM198.45,295.51h-7.46v10.16h7.46v-10.16ZM197.52,275.56h-5.59v5.78h5.59v-5.78Z"/>
  </g>
  <g>
    <path class="cls-1" d="M118.1,68.31c32.33-26.85,65.21,1.53,82.34,4.34,4.89.69,12.26-.28,13.03-.34-19.83,8.03-26.45-.97-51.32-8.28-17.7-5.05-29.05-1.91-44.05,4.28Z"/>
    <path class="cls-1" d="M104.5,84.68c5.15-11.79,19.97-21.4,34.79-18.93,21.73,3.48,37.85,12.39,57.19,13.09-14.65,4.16-32.56-2.22-55.11-7.29-14.4-3.61-27.22,2.08-36.88,13.13Z"/>
    <path class="cls-1" d="M165.48,57.23c12.18-6.8,25.3-1.84,37.56,3.96,11.74,5.59,14.97,6.39,20.89,5.26-6.47,4.87-14.78,2.57-22.92-.52-14.67-5.65-19.69-9.58-35.53-8.7Z"/>
  </g>
  <g>
    <path class="cls-1" d="M136.13,112.02v22.34h-5.91v63.31h-22.47l-23.11-42.89v20.93h6.81v21.96h-34.54v-22.47h6.04v-40.84h-6.04v-22.34h31.08l20.55,38.52v-17.08h-6.04v-21.45h33.65ZM128.56,119.34h-19.01v7.83h5.27v48.54l-31.59-56.37h-18.62v7.83h6.04v55.48h-6.04v7.58h19.65v-7.58h-5.91v-52.91l33.9,60.48h10.4v-63.05h5.91v-7.83Z"/>
    <path class="cls-1" d="M206.12,162.36v20.29l-15.54,15.02h-29.92l-15.02-15.41v-55.73l15.02-14.51h30.82l14.64,15.15v18.36h-23.76v-11.17h-11.17v40.45h11.17v-12.46h23.76ZM198.54,169.68h-8.6v7.7l-5.14,5.27h-16.18l-5.14-5.27v-45.59l5.14-4.62h16.69l4.62,4.62v6.42h8.6v-8.22l-10.4-10.66h-24.01l-10.79,10.66v48.93l10.79,11.3h22.99l11.43-11.3v-9.25Z"/>
    <path class="cls-1" d="M291.13,175.2v22.47h-34.16v-21.19h1.93l-5.01-10.92h-5.52v10.92h4.49v21.19h-35.19v-22.47h6.04v-40.84h-6.04v-22.34h52.01l14.51,14.77v24.01l-7.96,7.96,7.58,16.44h7.32ZM283.81,182.52h-5.01l-11.56-24.78,9.37-9.25v-18.49l-10.53-10.66h-40.71v7.83h5.91v55.35h-5.91v7.71h20.42v-7.71h-4.24v-23.76h16.69l10.91,23.76h-4.75v7.71h19.39v-7.71ZM267.11,131.92v13.61l-5.39,5.39h-20.16v-23.76h20.67l4.88,4.75ZM259.41,134.36h-10.14v8.86h10.14v-8.86Z"/>
  </g>
  <g>
    <path class="cls-1" d="M74.35,229.08v6.28h-9.55v-5.92h.54l-1.4-3.05h-1.54v3.05h1.26v5.92h-9.83v-6.28h1.69v-11.41h-1.69v-6.25h14.54l4.06,4.13v6.71l-2.23,2.22,2.12,4.59h2.05ZM72.31,231.12h-1.4l-3.23-6.93,2.62-2.58v-5.17l-2.94-2.98h-11.38v2.19h1.65v15.47h-1.65v2.15h5.71v-2.15h-1.18v-6.64h4.67l3.05,6.64h-1.33v2.15h5.42v-2.15ZM67.64,216.98v3.8l-1.51,1.51h-5.64v-6.64h5.78l1.36,1.33ZM65.49,217.66h-2.84v2.48h2.84v-2.48Z"/>
    <path class="cls-1" d="M90.04,211.42l5.42,17.66h2.15v6.28h-10.05v-6.03h1.54l-.43-1.36h-4.56l-.43,1.36h1.47v6.03h-9.73v-6.28h1.97l5.85-17.66h6.78ZM88.42,213.46h-3.66l-5.81,17.69h-1.36v2.12h5.35v-2.12h-1.76l1.54-4.74h7.32l1.47,4.74h-1.69v2.12h5.64v-2.12h-1.47l-5.56-17.69ZM86.66,215.65l2.76,8.9h-6.07l2.91-8.9h.39ZM86.45,220.46l-.83,2.48h1.62l-.79-2.48Z"/>
    <path class="cls-1" d="M124.81,211.42v6.25h-1.65v11.41h1.65v6.28h-9.94v-6.28h1.65v-5.67l-2.58,4.41h-3.19l-2.66-4.41v5.67h1.76v6.28h-9.98v-6.28h1.69v-11.41h-1.69v-6.25h8.22l4.23,7.36,4.34-7.36h8.15ZM122.7,213.46h-4.95l-5.38,9.04-5.24-9.04h-5.13v2.19h1.65v15.5h-1.65v2.12h5.74v-2.12h-1.69v-15.22l5.67,9.76h1.26l5.67-9.62v15.07h-1.65v2.12h5.71v-2.12h-1.62v-15.5h1.62v-2.19Z"/>
    <path class="cls-1" d="M147.5,215.65v6.21l-1.11,1.19,1.11,1.18v6.89l-4.34,4.24h-14.5v-6.28h1.69v-11.41h-1.69v-6.25h14.75l4.09,4.24ZM145.34,216.77l-3.23-3.3h-11.27v2.19h1.62v15.43h-1.69v2.19h11.16l3.37-3.34v-4.92l-1.87-1.9,1.9-1.9v-4.45ZM141.14,215.65l1.33,1.36v3.8l-1.26,1.29h-5.89v-6.46h5.81ZM141.07,224.23l1.4,1.4v4.02l-1.51,1.51h-5.64v-6.93h5.74ZM140.32,217.66h-2.84v2.37h2.84v-2.37ZM140.32,226.24h-2.84v2.83h2.84v-2.83Z"/>
    <path class="cls-1" d="M167.59,215.65v15.5l-4.23,4.2h-9.08l-4.13-4.2v-15.61l4.23-4.13h8.97l4.23,4.24ZM165.44,216.51l-3.05-3.05h-7l-3.16,3.05v13.67l2.91,3.09h7.25l3.05-2.98v-13.78ZM162.57,217.05v12.67l-1.4,1.44h-4.74l-1.29-1.44v-12.67l1.44-1.4h4.59l1.4,1.4ZM160.45,217.66h-3.23v11.41h3.23v-11.41Z"/>
    <path class="cls-1" d="M190.99,211.42v6.25h-1.9v13.49l-4.2,4.2h-8.79l-4.16-4.2v-13.49h-1.87v-6.25h9.98v6.03h-.93v11.63h2.87v-11.63h-.93v-6.03h9.94ZM188.88,213.46h-5.92v2.19h1.15v14.14l-1.36,1.36h-4.45l-1.29-1.36v-14.14h1.15v-2.19h-5.92v2.19h1.87v14.61l2.91,3.01h6.96l3.01-2.87v-14.75h1.9v-2.19Z"/>
    <path class="cls-1" d="M204.56,211.42v6.25h-1.65v11.41h1.65v6.28h-10.44v-6.28h1.65v-11.41h-1.65v-6.25h10.44ZM202.44,213.46h-6.17v2.19h1.62v15.5h-1.62v2.12h6.17v-2.12h-1.65v-15.5h1.65v-2.19Z"/>
    <path class="cls-1" d="M219.13,211.42v6.25h-1.97v11.41h2.66v-3.84h6.39v10.12h-17.8v-6.28h1.65v-11.41h-1.65v-6.25h10.73ZM217.01,213.46h-6.46v2.19h1.65v15.5h-1.65v2.12h13.53v-5.99h-2.15v3.88h-6.89v-15.5h1.97v-2.19Z"/>
    <path class="cls-1" d="M239.8,211.42v6.25h-1.97v11.41h2.66v-3.84h6.39v10.12h-17.8v-6.28h1.65v-11.41h-1.65v-6.25h10.73ZM237.69,213.46h-6.46v2.19h1.65v15.5h-1.65v2.12h13.53v-5.99h-2.15v3.88h-6.89v-15.5h1.97v-2.19Z"/>
    <path class="cls-1" d="M268.09,211.42v7.68h-6.42v-1.44h-3.09v2.55h5.67v6.1h-5.67v2.76h3.09v-1.72h6.42v8h-18.34v-6.28h1.65v-11.41h-1.65v-6.25h18.34ZM265.93,213.46h-14.03v2.19h1.65v15.5h-1.65v2.12h14.03v-3.81h-2.15v1.69h-7.39v-6.96h5.74v-1.94h-5.74v-6.6h7.39v1.4h2.15v-3.59Z"/>
    <path class="cls-1" d="M290.52,211.42v8.76h-5.56v-2.51h-1.18v11.41h1.72v6.28h-10.48v-6.28h1.72v-11.41h-1.04v2.51h-5.67v-8.76h20.49ZM288.51,213.46h-16.44v4.74h1.94v-2.55h4.81v15.5h-1.69v2.12h6.24v-2.12h-1.65v-15.5h4.88v2.55h1.9v-4.74Z"/>
  </g>
</svg>